<svg viewBox="0 0 21.021 17.079" xmlns="http://www.w3.org/2000/svg" width="300" height="300" version="1.1" xmlns:xlink="http://www.w3.org/1999/xlink" xmlns:svgjs="http://svgjs.dev/svgjs"><g width="100%" height="100%" transform="matrix(1,0,0,1,0,0)"><g id="Layer_2" data-name="Layer 2"><g id="Layer_1-2" data-name="Layer 1"><g id="health_care_program" data-name="health care program"><path d="m20.623 11.677a.911.911 0 0 0 -.884-.123.932.932 0 0 0 -.4-1.012c-.919-.537-3.05 1.005-4.414 1.277 2.174-1.769 4.963-4.6 4.963-7.582a4.265 4.265 0 0 0 -7.644-2.562 4.265 4.265 0 0 0 -7.644 2.562c0 2.117 1.413 4.169 3.016 5.805a52.256 52.256 0 0 0 -7.3-.275.317.317 0 0 0 -.316.313v5.729a.318.318 0 0 0 .321.321h2.624c3.994 1.42 12.468 1.711 17.3-2.468a1.829 1.829 0 0 0 .776-1.172 1 1 0 0 0 -.398-.813zm-3.205-.123c.733-.268 1.623-.867 1.711-.217a.992.992 0 0 1 -.349.576 26.468 26.468 0 0 1 -4 1.4 1.763 1.763 0 0 0 .038-.795 22.924 22.924 0 0 0 2.6-.964zm-12.176-7.317a3.617 3.617 0 0 1 6.731-1.837.315.315 0 0 0 .548 0 3.62 3.62 0 0 1 6.736 1.834c0 2.817-2.883 5.615-5 7.289a1.642 1.642 0 0 0 -.912-.274c-2.927.056-3.422-.246-4-.577-2.067-1.503-4.065-4.093-4.103-6.435zm-4.604 6.163h2.042v5.086h-2.042zm19.224 2.742c-6.508 5.158-15.088 2.875-16.548 2.439v-5.181c4.353.018 5.071.444 5.714.822s1.22.719 4.344.662a.859.859 0 0 1 .836 1.077c.007.1-.049.389-.6.615-.612.222-1.9.428-4.793.057a.324.324 0 0 0 -.354.274.319.319 0 0 0 .274.359 12.224 12.224 0 0 0 5.067-.085 24.11 24.11 0 0 0 5-1.6c.652-.275 1.267-.539 1.408-.426.457.345-.124.818-.348.988z" fill="#ffffff" fill-opacity="1" data-original-color="#000000ff" stroke="none" stroke-opacity="1"/><path d="m1.659 11.081a.369.369 0 0 0 0 .738.369.369 0 0 0 0-.738z" fill="#ffffff" fill-opacity="1" data-original-color="#000000ff" stroke="none" stroke-opacity="1"/><path d="m9.94 8h1.14v1.134a.811.811 0 0 0 .8.813h.728a.812.812 0 0 0 .8-.813v-1.134h1.139a.807.807 0 0 0 .808-.8v-.732a.815.815 0 0 0 -.808-.814h-1.132v-1.133a.8.8 0 0 0 -.8-.8h-.728a.8.8 0 0 0 -.8.8v1.133h-1.147a.815.815 0 0 0 -.808.814v.732a.807.807 0 0 0 .808.8zm-.165-1.532a.167.167 0 0 1 .165-.168h1.46a.322.322 0 0 0 .322-.321v-1.458c-.018-.28.542-.138.893-.171a.17.17 0 0 1 .17.171v1.455a.317.317 0 0 0 .315.324h1.456c.28-.015.138.563.17.9a.167.167 0 0 1 -.17.16h-1.456a.324.324 0 0 0 -.317.322v1.452c.017.28-.562.138-.9.17a.164.164 0 0 1 -.165-.17v-1.456a.328.328 0 0 0 -.322-.322h-1.456c-.272.016-.134-.536-.165-.888z" fill="#ffffff" fill-opacity="1" data-original-color="#000000ff" stroke="none" stroke-opacity="1"/></g></g></g></g></svg>