<svg width="49" height="49" viewBox="0 0 49 49" fill="none" xmlns="http://www.w3.org/2000/svg">
<path fill-rule="evenodd" clip-rule="evenodd" d="M25.0241 1.53125C31.3173 1.53125 37.0051 4.1227 41.0793 8.29622L42.2427 6.78794C43.6579 9.2566 45.1442 14.3704 43.7691 17.6812C42.3176 16.0376 39.6129 14.6143 36.9623 13.6337L38.3174 11.8769C34.06 7.3254 27.4754 4.72582 21.0775 4.72582C17.0425 4.72582 13.2631 5.66094 10.0166 7.29038C13.992 3.7107 19.2533 1.53125 25.0241 1.53125ZM34.0073 33.6923V21.0063H35.9404C36.4196 21.0063 36.6868 20.4557 36.3904 20.0791L31.9671 14.4608C31.7378 14.1695 31.2963 14.1697 31.067 14.4608L26.6437 20.0791C26.3475 20.4555 26.6147 21.0062 27.0937 21.0062H28.8343V33.6923H34.0073ZM21.0214 33.6923V21.0063H22.9545C23.4337 21.0063 23.7009 20.4557 23.4045 20.0791L18.9812 14.4608C18.7519 14.1695 18.3104 14.1697 18.0811 14.4608L13.6578 20.0791C13.3616 20.4555 13.6288 21.0062 14.1078 21.0062H15.8485V33.6923H21.0214ZM44.4543 35.1853C41.3077 40.6355 36.2196 44.2655 30.5681 45.707L31.2926 47.4688C28.447 47.46 23.2752 46.1903 21.0955 43.344C23.2445 42.9088 25.8294 41.2781 28.0041 39.4729L28.848 41.5248C34.9185 40.1136 40.462 35.7109 43.6609 30.1702C45.6785 26.6758 46.7583 22.9353 46.9704 19.309C48.0829 24.5415 47.3397 30.1876 44.4543 35.1853ZM5.59396 35.1853C8.47941 40.183 12.9975 43.6497 18.0853 45.3026C15.051 43.3058 12.3514 40.5002 10.3339 37.0059C7.13498 31.4652 6.09401 24.463 7.90701 18.5002L10.1059 18.7953C9.62986 16.0095 9.51014 12.9555 10.2077 10.8768C6.65292 11.3413 2.96739 15.1854 1.53711 17.6453L3.42504 17.8987C1.84776 23.5138 2.44734 29.7352 5.59396 35.1853Z" fill="url(#paint0_linear_46_340)"/>
<defs>
<linearGradient id="paint0_linear_46_340" x1="1.53711" y1="24.5" x2="47.4632" y2="24.5" gradientUnits="userSpaceOnUse">
<stop stop-color="#8568EE"/>
<stop offset="1" stop-color="#400463"/>
</linearGradient>
</defs>
</svg>
