<svg width="44" height="44" viewBox="0 0 44 44" fill="none" xmlns="http://www.w3.org/2000/svg">
<path d="M18.1323 20.7109C19.6392 20.7109 21.0403 20.0437 21.9995 18.946C22.9587 20.0437 24.3599 20.7109 25.8667 20.7109C28.7105 20.7109 31.023 18.3984 31.023 15.5547C31.023 13.7042 30.0171 12.0148 28.4448 11.1059V0H15.5542V11.1059C13.9819 12.0147 12.9761 13.7041 12.9761 15.5547C12.9761 18.3984 15.2886 20.7109 18.1323 20.7109Z" fill="url(#paint0_linear_46_346)"/>
<path d="M25.8667 23.2891C24.3599 23.2891 22.9587 23.9563 21.9995 25.054C21.0403 23.9563 19.6392 23.2891 18.1323 23.2891C15.2886 23.2891 12.9761 25.6016 12.9761 28.4453C12.9761 30.2958 13.9819 31.9852 15.5542 32.8941V44H28.4448V32.8941C30.0171 31.9853 31.023 30.2959 31.023 28.4453C31.023 25.6016 28.7104 23.2891 25.8667 23.2891Z" fill="url(#paint1_linear_46_346)"/>
<path d="M41.319 27.1425C41.1435 26.9335 40.9477 26.7491 40.7383 26.5845C41.1035 25.0863 41.3354 23.5557 41.3354 22.0001C41.3354 14.7963 37.2257 8.25513 31.0229 4.948V7.93415C35.7153 10.9701 38.7573 16.236 38.7573 22.0001C38.7573 23.2823 38.5697 24.5415 38.2843 25.778C37.3926 25.7898 36.5554 26.0888 35.8708 26.6653C34.2368 28.035 34.0228 30.4797 35.3936 32.1149C36.1578 33.0238 37.2555 33.4921 38.3595 33.4921C39.2369 33.4921 40.1194 33.1963 40.842 32.5895C41.6338 31.926 42.1185 30.9932 42.2079 29.9647C42.2985 28.935 41.9825 27.933 41.319 27.1425Z" fill="url(#paint2_linear_46_346)"/>
<path d="M12.9761 7.90726V4.93726C11.2768 5.83762 9.69416 6.95979 8.32715 8.32749L10.15 10.1503C11.0049 9.29497 11.9632 8.55677 12.9761 7.90726Z" fill="url(#paint3_linear_46_346)"/>
<path d="M5.24177 22C5.24177 20.7204 5.42886 19.4639 5.71306 18.2302C6.59744 18.2158 7.44384 17.9123 8.12962 17.3372C9.76363 15.9664 9.97762 13.5217 8.60674 11.8864C7.23458 10.2549 4.78992 10.0435 3.15848 11.4105V11.4118C2.36665 12.0753 1.88196 13.008 1.79259 14.0365C1.70192 15.0662 2.01792 16.0684 2.68135 16.8589C2.85649 17.0674 3.05209 17.2515 3.26109 17.4159C2.89585 18.9133 2.66374 20.4432 2.66374 22C2.66374 29.2038 6.77352 35.745 12.9762 39.0521V36.0659C8.28379 33.0301 5.24177 27.7641 5.24177 22Z" fill="url(#paint4_linear_46_346)"/>
<path d="M31.0229 36.0927V39.0627C32.7223 38.1623 34.3049 37.0401 35.6719 35.6724L33.8491 33.8496C32.9941 34.705 32.0358 35.4432 31.0229 36.0927Z" fill="url(#paint5_linear_46_346)"/>
<defs>
<linearGradient id="paint0_linear_46_346" x1="12.9761" y1="10.3555" x2="31.023" y2="10.3555" gradientUnits="userSpaceOnUse">
<stop stop-color="#8568EE"/>
<stop offset="1" stop-color="#400463"/>
</linearGradient>
<linearGradient id="paint1_linear_46_346" x1="12.9761" y1="33.6445" x2="31.023" y2="33.6445" gradientUnits="userSpaceOnUse">
<stop stop-color="#8568EE"/>
<stop offset="1" stop-color="#400463"/>
</linearGradient>
<linearGradient id="paint2_linear_46_346" x1="31.0229" y1="19.22" x2="42.2231" y2="19.22" gradientUnits="userSpaceOnUse">
<stop stop-color="#8568EE"/>
<stop offset="1" stop-color="#400463"/>
</linearGradient>
<linearGradient id="paint3_linear_46_346" x1="8.32715" y1="7.54378" x2="12.9761" y2="7.54378" gradientUnits="userSpaceOnUse">
<stop stop-color="#8568EE"/>
<stop offset="1" stop-color="#400463"/>
</linearGradient>
<linearGradient id="paint4_linear_46_346" x1="1.77734" y1="24.7807" x2="12.9762" y2="24.7807" gradientUnits="userSpaceOnUse">
<stop stop-color="#8568EE"/>
<stop offset="1" stop-color="#400463"/>
</linearGradient>
<linearGradient id="paint5_linear_46_346" x1="31.0229" y1="36.4561" x2="35.6719" y2="36.4561" gradientUnits="userSpaceOnUse">
<stop stop-color="#8568EE"/>
<stop offset="1" stop-color="#400463"/>
</linearGradient>
</defs>
</svg>
