<svg width="39" height="39" viewBox="0 0 39 39" fill="none" xmlns="http://www.w3.org/2000/svg">
<g clip-path="url(#clip0_46_361)">
<path d="M29.5016 29.7755C27.3804 24.8421 19.596 24.3613 18.2841 29.4415C18.277 29.4689 18.2709 29.4966 18.2657 29.5244C17.8818 31.5974 18.1859 32.8545 18.4301 33.8646C18.6893 34.9362 18.8605 35.6441 18.1642 37.3102C17.8292 38.1117 18.4182 39 19.2895 39H26.615C27.2885 39 27.8346 38.454 27.8346 37.7805V35.9572C27.8346 34.925 30.1881 32.6949 29.5702 29.9859C29.5538 29.9139 29.5308 29.8434 29.5016 29.7755Z" fill="url(#paint0_linear_46_361)"/>
<path d="M33.2416 20.8231C32.3155 19.4432 30.2639 19.4397 29.3354 20.8231C27.8635 23.0165 27.8634 25.8786 29.3354 28.0722C30.2615 29.452 32.3131 29.4557 33.2416 28.0722C34.7136 25.8789 34.7136 23.0164 33.2416 20.8231Z" fill="url(#paint1_linear_46_361)"/>
<path d="M25.2394 23.9849C27.268 22.6794 29.0226 20.2759 29.5064 18.1399C29.959 16.1422 28.7457 14.1294 26.7443 13.5575C19.4352 11.4694 13.2013 7.74336 9.00649 1.44118C8.57758 0.796863 7.66779 0.712789 7.1266 1.25687L0.7581 7.65883C0.149688 8.27045 0.352365 9.30593 1.14775 9.64223C8.61386 12.799 14.3426 17.1076 18.6611 22.8142C20.2053 24.8546 23.0953 25.3646 25.2394 23.9849Z" fill="url(#paint2_linear_46_361)"/>
<path d="M34.5756 38.9199C33.7978 38.9199 33.2188 38.2028 33.3822 37.4436L35.9079 25.7082C36.8026 21.6315 35.2445 17.4494 31.9566 14.9064L15.5077 2.1843C14.9749 1.77223 14.877 1.00627 15.2891 0.473473C15.7012 -0.0593256 16.4672 -0.15712 16.9999 0.254941L33.4487 12.977C37.4992 16.1097 39.3824 21.2553 38.2913 26.2263L35.7667 37.9567C35.6436 38.5288 35.1379 38.9199 34.5756 38.9199Z" fill="url(#paint3_linear_46_361)"/>
<path d="M15.1366 38.9999C14.447 38.9999 13.8941 38.4298 13.917 37.74L14.2496 27.694C14.2893 26.4941 13.7475 25.3249 12.8001 24.5666L0.860767 15.0091C0.334982 14.5882 0.249917 13.8207 0.67082 13.2949C1.09172 12.7691 1.85921 12.684 2.38507 13.1049L14.3245 22.6625C15.8691 23.899 16.7525 25.8102 16.6874 27.7747L16.3548 37.8208C16.333 38.4802 15.7915 38.9999 15.1366 38.9999Z" fill="url(#paint4_linear_46_361)"/>
</g>
<defs>
<linearGradient id="paint0_linear_46_361" x1="18.0688" y1="32.4236" x2="29.6736" y2="32.4236" gradientUnits="userSpaceOnUse">
<stop stop-color="#8568EE"/>
<stop offset="1" stop-color="#400463"/>
</linearGradient>
<linearGradient id="paint1_linear_46_361" x1="28.2314" y1="24.4476" x2="34.3456" y2="24.4476" gradientUnits="userSpaceOnUse">
<stop stop-color="#8568EE"/>
<stop offset="1" stop-color="#400463"/>
</linearGradient>
<linearGradient id="paint2_linear_46_361" x1="0.40332" y1="12.8283" x2="29.6009" y2="12.8283" gradientUnits="userSpaceOnUse">
<stop stop-color="#8568EE"/>
<stop offset="1" stop-color="#400463"/>
</linearGradient>
<linearGradient id="paint3_linear_46_361" x1="15.0342" y1="19.46" x2="38.5967" y2="19.46" gradientUnits="userSpaceOnUse">
<stop stop-color="#8568EE"/>
<stop offset="1" stop-color="#400463"/>
</linearGradient>
<linearGradient id="paint4_linear_46_361" x1="0.40332" y1="25.9187" x2="16.6908" y2="25.9187" gradientUnits="userSpaceOnUse">
<stop stop-color="#8568EE"/>
<stop offset="1" stop-color="#400463"/>
</linearGradient>
<clipPath id="clip0_46_361">
<rect width="39" height="39" fill="white"/>
</clipPath>
</defs>
</svg>
