<svg width="41" height="41" viewBox="0 0 41 41" fill="none" xmlns="http://www.w3.org/2000/svg">
<path d="M24.861 37.2038L20.4217 35.3702C19.6786 35.0687 19.2509 34.3015 19.3833 33.5048L23.0554 11.8944C23.4647 9.27974 21.7456 6.83471 19.1413 6.33187L6.61205 3.9204C6.29615 3.8574 5.97672 3.97663 5.78065 4.2307C4.1155 6.33422 3.31206 9.79937 3.25053 15.1381C3.24612 15.5647 3.56319 15.9274 3.98772 15.981C7.96072 16.4938 13.0018 15.3348 13.0525 15.3233C13.0675 15.3198 13.0826 15.3192 13.0978 15.318C13.1011 15.3177 13.1038 15.3158 13.1072 15.3156C13.1946 15.3115 15.2531 15.1905 15.9659 13.0855C16.0198 12.9283 16.1926 12.8432 16.348 12.8968C16.5058 12.9504 16.5903 13.1214 16.537 13.2792C15.8202 15.3953 13.9064 15.8172 13.3148 15.8983C12.5715 17.2793 12.2099 18.9124 12.2464 20.7601C12.272 21.8726 12.5158 23.0682 13.0142 24.5211C13.8944 27.1151 13.6996 30.7051 13.5052 32.6143C13.454 33.0565 13.3642 33.481 13.2765 33.8784C12.9815 35.1244 12.8923 36.4392 13.0109 37.7908C13.1057 38.9148 14.0702 39.7948 15.2069 39.7948H25.8367C25.96 39.7948 26.0755 39.7468 26.1611 39.6597C26.2494 39.5705 26.2968 39.4507 26.2951 39.3226C26.2951 39.3223 26.2951 39.3229 26.2951 39.3226C26.2845 38.3867 25.7213 37.5547 24.861 37.2038Z" fill="url(#paint0_linear_46_354)"/>
<path d="M23.6294 7.07645C23.7352 7.17567 23.8722 7.22999 24.0162 7.22999C24.0786 7.22999 24.1422 7.21968 24.2052 7.19878L26.3084 6.47705L27.3515 6.11934C27.3771 6.11051 27.3947 6.08828 27.4186 6.07607C27.5165 6.02602 27.592 5.95139 27.6474 5.85703C27.672 5.81581 27.7052 5.78034 27.7194 5.73353C27.7378 5.66684 27.7326 5.59751 27.7268 5.52877C27.7229 5.48004 27.7114 5.43618 27.6954 5.38996C27.6747 5.32946 27.6569 5.26763 27.6169 5.21493L27.1657 4.67367L28.1397 4.36292L29.293 3.99698C29.382 3.96739 29.4602 3.91793 29.5245 3.85463C29.5417 3.83756 29.5489 3.81342 29.5638 3.79443C29.6069 3.74011 29.6502 3.68535 29.6729 3.6172C29.6747 3.61146 29.6723 3.60542 29.6738 3.59968C29.6971 3.51577 29.702 3.42893 29.687 3.34502C29.6864 3.34208 29.6859 3.33943 29.6854 3.33663C29.668 3.24742 29.6299 3.1619 29.5713 3.08771L28.2394 1.4255C28.1968 1.37104 28.1433 1.32894 28.0862 1.29361C28.0641 1.27962 28.0398 1.27182 28.0159 1.26122C27.9639 1.23841 27.9115 1.21574 27.8535 1.20911C27.6989 1.19086 27.5488 1.23502 27.4292 1.33188L24.6518 3.55552C24.6517 3.55567 24.652 3.55537 24.6518 3.55552L24.6504 3.55684C24.6116 3.58776 24.5846 3.63148 24.5545 3.67196C24.5381 3.69433 24.5145 3.71141 24.5015 3.73569C24.4637 3.80517 24.4393 3.88231 24.4333 3.96091C24.4253 4.06513 24.4569 4.16508 24.5058 4.25871C24.5298 4.30596 24.5507 4.35483 24.5874 4.39487L24.8904 4.69045L24.9699 4.76876L23.5952 6.26404C23.4143 6.45703 23.3902 6.74039 23.5349 6.96355C23.5622 7.00594 23.594 7.04363 23.6294 7.07645Z" fill="url(#paint1_linear_46_354)"/>
<path d="M32.8145 14.7355C32.8143 14.7352 32.8139 14.7349 32.8137 14.7346C32.8137 14.7344 32.8137 14.7342 32.8136 14.7339C32.7388 14.5834 32.6096 14.4718 32.4506 14.42L28.4635 13.102C28.463 13.1018 28.4626 13.102 28.4621 13.1018L28.4612 13.1015C28.2984 13.0472 28.1175 13.0593 27.9668 13.1438C27.8161 13.2281 27.7015 13.3668 27.6593 13.5417L27.6069 13.7323L27.476 14.1985L25.1149 13.8009C24.8907 13.7635 24.6796 13.8442 24.5416 14.0048C24.5011 14.0513 24.4645 14.1027 24.4378 14.1621C24.3783 14.2948 24.3668 14.4359 24.3987 14.5668C24.4303 14.6984 24.5055 14.8195 24.6204 14.9104L27.2701 16.9815L27.7133 17.3282C27.7918 17.3897 27.8829 17.4303 27.9786 17.449C27.9798 17.4493 27.9809 17.45 27.9821 17.4502C28.0734 17.4674 28.1685 17.4624 28.261 17.4375C28.2675 17.4359 28.2739 17.4384 28.2803 17.4366C28.3505 17.4147 28.4071 17.3694 28.4641 17.3258C28.5647 17.251 28.65 17.1578 28.6907 17.0355L28.9351 16.3186L28.9797 16.1885H28.9857H28.9876C28.989 16.1893 28.9921 16.1885 28.9927 16.1893L31.0659 17.8889C31.1656 17.9676 31.285 18.0075 31.4093 18.0182C31.4277 18.02 31.4449 18.0277 31.4634 18.0277C31.5203 18.0277 31.578 18.02 31.6342 18.0038C31.6769 17.9917 31.7166 17.9733 31.755 17.9529C31.7609 17.9498 31.7679 17.9483 31.7737 17.9449C31.9047 17.87 32.0062 17.7489 32.0564 17.6008L32.8448 15.2129C32.8917 15.0767 32.8804 14.9346 32.8321 14.8019C32.8243 14.7801 32.8246 14.7567 32.8145 14.7355Z" fill="url(#paint2_linear_46_354)"/>
<path d="M37.7282 8.78454L37.2028 6.58504L36.7587 4.72028C36.7092 4.50066 36.5771 4.31459 36.3863 4.19595C36.3271 4.15915 36.2605 4.14501 36.196 4.12426C36.0521 4.07701 35.9009 4.05596 35.7506 4.09349L35.5656 4.13751L28.9655 5.70683C28.8804 5.72656 28.802 5.76292 28.7283 5.80678C28.6547 5.85006 28.5862 5.90099 28.5295 5.96473C28.4915 6.00713 28.4578 6.05364 28.4291 6.10369C28.3623 6.22013 28.3295 6.35114 28.3242 6.48436C28.3208 6.55781 28.3278 6.63112 28.3446 6.70369C28.3496 6.72606 28.3513 6.74873 28.3582 6.77081L28.4011 6.90609L28.6901 7.82581C28.7263 7.94034 28.6721 8.06089 28.5575 8.10918L24.8675 9.61049C24.7848 9.6442 24.712 9.69131 24.6464 9.74548C24.6417 9.7496 24.635 9.75137 24.6303 9.75549C24.6082 9.77462 24.5946 9.80068 24.5749 9.82188C24.4706 9.93287 24.3921 10.0648 24.3622 10.2158C24.3616 10.219 24.3625 10.2227 24.3619 10.2259C24.3459 10.3121 24.3414 10.4019 24.3537 10.4939C24.3578 10.5251 24.3729 10.5511 24.3802 10.5811C24.4595 10.9222 24.7294 11.176 25.0906 11.2203L31.5661 11.9438H31.6165C31.6313 11.9447 31.6463 11.9464 31.6611 11.9464C31.7892 11.9464 31.9137 11.9147 32.0273 11.8593C32.1246 11.8131 32.2147 11.7498 32.2897 11.6665C32.3776 11.567 32.4373 11.4498 32.4697 11.3257C32.505 11.1945 32.5096 11.0554 32.4778 10.9196L32.1831 9.68189L32.1395 9.49818C32.134 9.47566 32.142 9.46079 32.1427 9.44121C32.1457 9.36894 32.1741 9.31005 32.1932 9.29092C32.201 9.2812 32.2202 9.26825 32.2365 9.25588C32.2513 9.24514 32.2667 9.24057 32.2879 9.23263C32.3166 9.22232 32.3462 9.21143 32.3862 9.21849H32.3922L34.4002 9.48493L36.7993 9.80554C36.9193 9.82247 37.0379 9.80833 37.1504 9.77462C37.2928 9.73223 37.4248 9.65539 37.5292 9.54411C37.7162 9.3392 37.7885 9.05584 37.7282 8.78454Z" fill="url(#paint3_linear_46_354)"/>
<defs>
<linearGradient id="paint0_linear_46_354" x1="3.25049" y1="21.8493" x2="26.2951" y2="21.8493" gradientUnits="userSpaceOnUse">
<stop stop-color="#8568EE"/>
<stop offset="1" stop-color="#400463"/>
</linearGradient>
<linearGradient id="paint1_linear_46_354" x1="23.4409" y1="4.21753" x2="29.6956" y2="4.21753" gradientUnits="userSpaceOnUse">
<stop stop-color="#8568EE"/>
<stop offset="1" stop-color="#400463"/>
</linearGradient>
<linearGradient id="paint2_linear_46_354" x1="24.3813" y1="15.5481" x2="32.8747" y2="15.5481" gradientUnits="userSpaceOnUse">
<stop stop-color="#8568EE"/>
<stop offset="1" stop-color="#400463"/>
</linearGradient>
<linearGradient id="paint3_linear_46_354" x1="24.3467" y1="8.01033" x2="37.749" y2="8.01033" gradientUnits="userSpaceOnUse">
<stop stop-color="#8568EE"/>
<stop offset="1" stop-color="#400463"/>
</linearGradient>
</defs>
</svg>
