<svg width="54" height="54" viewBox="0 0 54 54" fill="none" xmlns="http://www.w3.org/2000/svg">
<path fill-rule="evenodd" clip-rule="evenodd" d="M31.1927 11.5051L33.6781 14.6182C34.031 15.0612 33.7558 15.7137 33.2152 15.7944L33.2153 15.7952L29.2624 16.3933C28.7204 16.475 28.2486 15.9397 28.4869 15.3714C28.4872 15.3707 28.4875 15.37 28.4878 15.3693L28.8351 14.4828C28.8464 14.454 28.8441 14.4245 28.8284 14.3978C28.8127 14.3712 28.7883 14.3546 28.7578 14.3504C21.2567 13.3091 14.4828 19.0113 14.2769 26.5952C14.2023 29.3434 15.0137 32.0918 16.661 34.3818C16.8961 34.7084 16.8219 35.1637 16.4953 35.3988C16.1688 35.634 15.7134 35.5598 15.4783 35.2332C11.7781 30.0912 11.9332 23.0556 15.9433 18.0669C19.1946 14.0221 24.3291 12.1238 29.3478 12.9623C29.3937 12.9699 29.4376 12.9451 29.4546 12.9018L29.9324 11.6824C30.1424 11.1455 30.8538 11.0628 31.1914 11.5035C31.192 11.5041 31.1923 11.5045 31.1927 11.5051ZM31.1831 22.6902C28.8475 20.3978 25.0954 20.4113 22.7763 22.7303C20.4437 25.0629 20.4437 28.8451 22.7763 31.1777C25.1089 33.5103 28.8912 33.5103 31.2236 31.1777C33.1108 29.2905 33.52 26.3721 32.2167 24.0424C32.2011 24.0146 32.1755 23.9974 32.1439 23.9933C32.1121 23.9893 32.0832 23.9996 32.0611 24.0228L26.9799 29.3514L26.979 29.3505C26.6764 29.6678 26.1536 29.6462 25.8801 29.3L23.437 26.2088C23.1878 25.8932 23.2415 25.4353 23.557 25.186C23.8726 24.9368 24.3305 24.9905 24.5798 25.306L26.4325 27.6503C26.4507 27.6732 26.4753 27.6858 26.5045 27.6872C26.5336 27.6886 26.5593 27.6783 26.5795 27.6571L31.1853 22.827C31.2221 22.7887 31.2211 22.7274 31.1831 22.6902ZM9.23796 10.7051C9.0225 18.7224 8.93049 26.9205 11.1186 33.8534C13.3155 40.8142 17.849 46.5385 26.969 49.5774C26.9899 49.5844 27.0099 49.5844 27.0309 49.5774C36.1508 46.5385 40.6843 40.8142 42.8813 33.8534C45.0693 26.9205 44.9773 18.7224 44.7619 10.7051C44.7606 10.6579 44.7268 10.6191 44.6801 10.6116C38.6024 9.62206 32.2392 7.49694 27.0493 4.43158C27.0179 4.41311 26.9816 4.41311 26.9503 4.43158C21.7601 7.49748 15.3979 9.62173 9.31972 10.6114C9.27317 10.6191 9.23926 10.6579 9.23796 10.7051ZM37.3389 19.5263C38.9862 21.8164 39.7975 24.5647 39.723 27.3129C39.5172 34.897 32.7431 40.599 25.2422 39.5577C25.2116 39.5535 25.1872 39.5369 25.1715 39.5103C25.1559 39.4836 25.1535 39.4541 25.1648 39.4253L25.5122 38.5388C25.5125 38.5381 25.5127 38.5374 25.513 38.5367C25.7515 37.9683 25.2795 37.4331 24.7377 37.5148L20.7848 38.1129L20.7849 38.1138C20.2442 38.1944 19.9692 38.8471 20.322 39.2899L22.8077 42.4032C23.1499 42.8417 23.8557 42.7677 24.0678 42.2256L24.5456 41.0062C24.5625 40.9629 24.6065 40.9381 24.6524 40.9457C29.671 41.7842 34.8056 39.8859 38.0569 35.8411C42.0669 30.8524 42.222 23.8168 38.5218 18.6748C38.2867 18.3482 37.8314 18.274 37.5048 18.5092C37.178 18.7444 37.1038 19.1997 37.3389 19.5263ZM27 19.5182C24.9467 19.5182 23.0878 20.3506 21.7421 21.6961C18.8382 24.6 18.8382 29.3079 21.7421 32.2118C24.646 35.1157 29.3538 35.1157 32.2577 32.2118C34.7398 29.7297 35.1514 25.8421 33.2347 22.9007C33.2098 22.8623 33.2142 22.8133 33.2458 22.7801L34.3488 21.6233C34.6265 21.3314 34.6149 20.8697 34.3231 20.592C34.0313 20.3144 33.5695 20.3259 33.2918 20.6178L32.3291 21.6273C32.3104 21.6469 32.2874 21.657 32.2603 21.6575C32.2333 21.658 32.2099 21.6487 32.1906 21.6298C30.8491 20.323 29.0208 19.5182 27 19.5182Z" fill="url(#paint0_linear_46_337)"/>
<defs>
<linearGradient id="paint0_linear_46_337" x1="9.13281" y1="27.0002" x2="44.867" y2="27.0002" gradientUnits="userSpaceOnUse">
<stop stop-color="#8568EE"/>
<stop offset="1" stop-color="#400463"/>
</linearGradient>
</defs>
</svg>
