<svg width="40" height="40" viewBox="0 0 40 40" fill="none" xmlns="http://www.w3.org/2000/svg">
<path d="M38.216 29.132L25.6522 4.82835C24.9322 3.56035 23.7882 2.59237 22.4162 2.09638C21.0483 1.59639 19.5483 1.60039 18.1843 2.10439C17.5003 2.36037 16.8723 2.72838 16.3283 3.19236C15.7843 3.66035 15.3204 4.22035 14.9643 4.85635L1.80853 29.096C0.720555 30.996 0.732567 33.3319 1.83255 35.2239C2.93654 37.1199 4.96444 38.2799 7.15245 38.2759H32.8521C35.0321 38.2799 37.052 37.1239 38.156 35.2439C38.72 34.2839 39 33.2079 39 32.136C39 31.1 38.74 30.064 38.216 29.132ZM20.0043 31.696C18.7923 31.696 17.8083 30.716 17.8083 29.504C17.8083 28.292 18.7923 27.312 20.0043 27.312C21.2123 27.312 22.1962 28.292 22.1962 29.504C22.1962 30.716 21.2123 31.696 20.0043 31.696ZM22.4442 14.4362L20.6523 25.2041C20.6283 25.5441 20.3443 25.812 20.0043 25.812C19.6603 25.812 19.3763 25.5441 19.3523 25.2041L17.5603 14.4362C17.5243 14.2562 17.5043 14.0762 17.5043 13.9002C17.5043 13.3202 17.6963 12.7522 18.0523 12.2802C18.5203 11.6642 19.2323 11.2842 20.0043 11.2322C20.7722 11.2842 21.4842 11.6642 21.9522 12.2802C22.4203 12.8962 22.6002 13.6802 22.4442 14.4362Z" fill="url(#paint0_linear_46_343)"/>
<defs>
<linearGradient id="paint0_linear_46_343" x1="1" y1="19.9999" x2="39" y2="19.9999" gradientUnits="userSpaceOnUse">
<stop stop-color="#8568EE"/>
<stop offset="1" stop-color="#400463"/>
</linearGradient>
</defs>
</svg>
