<svg id="Capa_1" enable-background="new 0 0 511.598 511.598" height="300" viewBox="0 0 511.598 511.598" width="300" xmlns="http://www.w3.org/2000/svg" version="1.1" xmlns:xlink="http://www.w3.org/1999/xlink" xmlns:svgjs="http://svgjs.dev/svgjs"><g width="100%" height="100%" transform="matrix(1,0,0,1,0,0)"><g><path d="m417.59 156.696c-3.525 2.175-4.62 6.796-2.445 10.321 20.974 33.995 32.06 73.173 32.06 113.297 0 57.723-22.479 111.991-63.295 152.808-40.816 40.816-95.084 63.295-152.807 63.295-45.181 0-88.453-13.796-125.136-39.896-3.376-2.402-8.058-1.612-10.459 1.764-2.401 3.375-1.612 8.058 1.763 10.459 39.238 27.917 85.517 42.674 133.833 42.674 61.729 0 119.765-24.039 163.414-67.688s67.688-101.685 67.688-163.414c0-42.908-11.858-84.809-34.294-121.174-2.176-3.527-6.795-4.624-10.322-2.446z" fill="#ffffff" fill-opacity="1" data-original-color="#000000ff" stroke="none" stroke-opacity="1"/><path d="m33.027 366.864c-11.962-27.336-18.027-56.455-18.027-86.55 0-57.723 22.479-111.991 63.295-152.807s95.084-63.295 152.808-63.295c40.081 0 79.22 11.062 113.187 31.99 3.526 2.172 8.146 1.075 10.319-2.45 2.173-3.526 1.076-8.147-2.451-10.319-36.333-22.388-78.194-34.221-121.055-34.221-61.729 0-119.765 24.039-163.414 67.688-43.65 43.649-67.689 101.684-67.689 163.414 0 32.177 6.489 63.319 19.286 92.563 12.359 28.244 29.99 53.395 52.402 74.755 1.452 1.384 3.314 2.07 5.173 2.07 1.98 0 3.957-.779 5.43-2.326 2.858-2.998 2.744-7.745-.255-10.604-20.962-19.978-37.452-43.498-49.009-69.908z" fill="#ffffff" fill-opacity="1" data-original-color="#000000ff" stroke="none" stroke-opacity="1"/><path d="m374.321 383.528c1.272.838 2.704 1.239 4.122 1.239 2.437 0 4.827-1.187 6.269-3.373 19.8-30.032 30.267-64.985 30.267-101.08 0-30.012-7.405-59.809-21.415-86.168-1.944-3.658-6.485-5.048-10.143-3.104-3.657 1.944-5.047 6.485-3.103 10.143 12.861 24.2 19.66 51.562 19.66 79.129 0 33.151-9.609 65.249-27.79 92.824-2.28 3.458-1.325 8.11 2.133 10.39z" fill="#ffffff" fill-opacity="1" data-original-color="#000000ff" stroke="none" stroke-opacity="1"/><path d="m320.255 127.926c1.941-3.659.548-8.199-3.111-10.141-26.328-13.965-56.081-21.347-86.042-21.347-101.39 0-183.876 82.486-183.876 183.875 0 101.39 82.486 183.876 183.876 183.876 50.598 0 97.752-20.128 132.775-56.677 2.866-2.991 2.765-7.738-.226-10.604-2.99-2.866-7.738-2.764-10.604.226-32.167 33.568-75.476 52.056-121.945 52.056-93.119 0-168.876-75.758-168.876-168.876s75.757-168.875 168.876-168.875c27.519 0 54.841 6.777 79.012 19.599 3.661 1.938 8.2.548 10.141-3.112z" fill="#ffffff" fill-opacity="1" data-original-color="#000000ff" stroke="none" stroke-opacity="1"/><path d="m231.103 400.005c-65.998 0-119.691-53.693-119.691-119.691 0-13.453 2.221-26.67 6.602-39.281 1.359-3.913-.711-8.187-4.624-9.546-3.912-1.359-8.187.71-9.546 4.624-4.932 14.198-7.432 29.07-7.432 44.203 0 74.27 60.422 134.691 134.691 134.691s134.691-60.422 134.691-134.691c0-16.617-3-32.856-8.919-48.269-1.485-3.867-5.826-5.796-9.69-4.313-3.867 1.485-5.798 5.823-4.313 9.69 5.256 13.689 7.922 28.12 7.922 42.892-.001 65.998-53.694 119.691-119.691 119.691z" fill="#ffffff" fill-opacity="1" data-original-color="#000000ff" stroke="none" stroke-opacity="1"/><path d="m283.553 164.172c1.48-3.869-.456-8.205-4.325-9.686-15.371-5.881-31.562-8.863-48.125-8.863-45.181 0-87.123 22.487-112.194 60.154-2.295 3.447-1.361 8.104 2.087 10.398 1.278.851 2.721 1.258 4.149 1.258 2.425 0 4.806-1.175 6.25-3.345 22.284-33.479 59.558-53.466 99.708-53.466 14.724 0 29.112 2.648 42.765 7.873 3.867 1.478 8.204-.455 9.685-4.323z" fill="#ffffff" fill-opacity="1" data-original-color="#000000ff" stroke="none" stroke-opacity="1"/><path d="m231.103 214.998c2.044 0 4.168.104 6.312.31 4.125.396 7.786-2.628 8.181-6.75.395-4.124-2.627-7.786-6.75-8.182-2.617-.251-5.222-.378-7.742-.378-44.286 0-80.316 36.029-80.316 80.315s36.03 80.316 80.316 80.316 80.316-36.03 80.316-80.316c0-2.576-.131-5.224-.388-7.869-.402-4.121-4.063-7.13-8.192-6.737-4.123.401-7.139 4.069-6.738 8.192.211 2.163.318 4.321.318 6.414 0 36.016-29.301 65.316-65.316 65.316s-65.316-29.301-65.316-65.316c-.001-36.014 29.299-65.315 65.315-65.315z" fill="#ffffff" fill-opacity="1" data-original-color="#000000ff" stroke="none" stroke-opacity="1"/><path d="m508.544 38.752-35.519-35.518c-2.879-2.879-7.203-3.819-11.019-2.401-3.815 1.42-6.472 4.96-6.769 9.02l-1.252 17.105-31.267 31.266-7.788-7.788c-2.929-2.928-7.678-2.928-10.606 0-2.929 2.93-2.929 7.678 0 10.607l2.247 2.247-142.707 142.706c-3.365 3.365-4.817 8.16-3.883 12.826l3.652 18.262-42.979 42.98c-2.929 2.93-2.929 7.678 0 10.607 1.464 1.464 3.384 2.196 5.303 2.196s3.839-.732 5.303-2.196l42.98-42.98 18.262 3.652c.932.187 1.868.277 2.797.277 3.726 0 7.335-1.468 10.028-4.16l142.707-142.707 2.702 2.702c1.464 1.464 3.384 2.196 5.303 2.196s3.839-.732 5.303-2.196c2.929-2.93 2.929-7.678 0-10.607l-7.787-7.787 31.267-31.267 17.105-1.253c4.059-.297 7.6-2.954 9.019-6.769 1.419-3.815.477-8.14-2.402-11.02zm-98.866 83.143-7.622-7.623c-2.929-2.93-7.678-2.929-10.607-.001-2.929 2.929-2.929 7.678 0 10.606l7.623 7.624-18.97 18.97-7.622-7.623c-2.929-2.93-7.678-2.929-10.606-.001-2.929 2.929-2.929 7.678 0 10.606l7.623 7.623-18.97 18.97-7.623-7.623c-2.929-2.928-7.678-2.929-10.606.001-2.929 2.929-2.929 7.678 0 10.606l7.622 7.622-18.969 18.969-7.623-7.623c-2.929-2.928-7.678-2.929-10.606.001-2.929 2.929-2.929 7.678 0 10.606l7.622 7.622-15.32 15.319-16.875-3.375-3.375-16.876 142.403-142.398 20.25 20.25zm71.265-78.856c-1.795.131-3.483.903-4.755 2.176l-33.24 33.24-9.624-9.624 33.24-33.239c1.273-1.273 2.045-2.961 2.177-4.756l.728-9.944 21.419 21.419z" fill="#ffffff" fill-opacity="1" data-original-color="#000000ff" stroke="none" stroke-opacity="1"/></g></g></svg>