<svg id="Layer_1" height="300" viewBox="0 0 64 64" width="300" xmlns="http://www.w3.org/2000/svg" data-name="Layer 1" version="1.1" xmlns:xlink="http://www.w3.org/1999/xlink" xmlns:svgjs="http://svgjs.dev/svgjs"><g width="100%" height="100%" transform="matrix(1,0,0,1,0,0)"><path d="m61 1h-58a1.962 1.962 0 0 0 -2 1.917v31.166a1.962 1.962 0 0 0 2 1.917h19v-2l-19 .083v-31.083l58-.083v31.083h-19v2h19a1.962 1.962 0 0 0 2-1.917v-31.166a1.962 1.962 0 0 0 -2-1.917z" fill="#ffffff" fill-opacity="1" data-original-color="#000000ff" stroke="none" stroke-opacity="1"/><path d="m21 5h-2v12h-14v2h15a1 1 0 0 0 1-1z" fill="#ffffff" fill-opacity="1" data-original-color="#000000ff" stroke="none" stroke-opacity="1"/><path d="m27 25h2v2h-2z" fill="#ffffff" fill-opacity="1" data-original-color="#000000ff" stroke="none" stroke-opacity="1"/><path d="m51 25h2v2h-2z" fill="#ffffff" fill-opacity="1" data-original-color="#000000ff" stroke="none" stroke-opacity="1"/><path d="m43 25h2v2h-2z" fill="#ffffff" fill-opacity="1" data-original-color="#000000ff" stroke="none" stroke-opacity="1"/><path d="m55 25h2v2h-2z" fill="#ffffff" fill-opacity="1" data-original-color="#000000ff" stroke="none" stroke-opacity="1"/><path d="m47 25h2v2h-2z" fill="#ffffff" fill-opacity="1" data-original-color="#000000ff" stroke="none" stroke-opacity="1"/><path d="m23 25h2v2h-2z" fill="#ffffff" fill-opacity="1" data-original-color="#000000ff" stroke="none" stroke-opacity="1"/><path d="m19 25h2v2h-2z" fill="#ffffff" fill-opacity="1" data-original-color="#000000ff" stroke="none" stroke-opacity="1"/><path d="m9.832 11.555.866-1.3 1.354 4.06a1 1 0 0 0 1.78.239l1.703-2.554h1.465v-2h-2a1 1 0 0 0 -.832.445l-.866 1.3-1.354-4.06a1 1 0 0 0 -1.78-.239l-1.703 2.554h-1.465v2h2a1 1 0 0 0 .832-.445z" fill="#ffffff" fill-opacity="1" data-original-color="#000000ff" stroke="none" stroke-opacity="1"/><path d="m54.123 5.236-22.135 18.737a1 1 0 0 0 .324 1.71 7.725 7.725 0 0 0 2.5.393c5.459 0 11.341-4.918 11.627-5.159a1 1 0 0 0 .325-1l-.383-1.572 1.817-1.539.647.763a1 1 0 0 0 1.41.118l8.4-7.107-1.301-1.527-4.579 3.876-1.938-2.29 4.579-3.875zm-9.511 11.983a1 1 0 0 0 -.325 1l.378 1.552c-1.436 1.106-5.85 4.251-9.71 4.312l11.3-9.565.646.762zm6.635-3-1.525 1.292-1.939-2.29 1.526-1.292z" fill="#ffffff" fill-opacity="1" data-original-color="#000000ff" stroke="none" stroke-opacity="1"/><path d="m19.476 46.1-5.923-3.933a1 1 0 0 0 -1.108 0l-3.15 2.1a1 1 0 0 0 -.1 1.586l7.6 6.62a3 3 0 0 0 3.015.549l3.19-1.183v5.161h2v-6.6a1 1 0 0 0 -1.349-.937l-4.535 1.685a1 1 0 0 1 -1.006-.182l-6.616-5.761 1.506-1.005 5.847 3.882a1 1 0 0 0 .992.065l3.768-1.843a3.008 3.008 0 0 1 1.318-.3h14.149a3 3 0 0 1 1.319.306l3.767 1.842a1 1 0 0 0 .992-.065l5.848-3.887 1.507 1-6.617 5.761a1 1 0 0 1 -1 .182l-4.536-1.685a1 1 0 0 0 -1.354.942v6.6h2v-5.161l3.188 1.184a3 3 0 0 0 3.014-.549l7.605-6.62a1 1 0 0 0 -.1-1.586l-3.15-2.1a1 1 0 0 0 -1.108 0l-5.925 3.932-3.252-1.59a5.009 5.009 0 0 0 -2.2-.51h-3.504a6.924 6.924 0 0 0 2.761-3.066.991.991 0 0 0 .671-.934v-4a.991.991 0 0 0 -.671-.934 6.959 6.959 0 0 0 -12.658 0 .991.991 0 0 0 -.671.934v4a.991.991 0 0 0 .671.934 6.924 6.924 0 0 0 2.761 3.066h-3.506a5.015 5.015 0 0 0 -2.2.509zm12.524-13.1a4.992 4.992 0 0 1 4 2h-8a4.992 4.992 0 0 1 4-2zm-5 4h10v2h-10zm1 4h8a4.994 4.994 0 0 1 -8 0z" fill="#ffffff" fill-opacity="1" data-original-color="#000000ff" stroke="none" stroke-opacity="1"/><path d="m25 63v-2.177c2.177.115 4.547.177 7 .177s4.823-.062 7-.177v2.177h2v-2.3c1.122-.081 2.18-.177 3.138-.29 4.903-.58 5.862-1.322 5.862-2.41 0-1.159-1.129-1.943-6.9-2.521l-.2 1.991a35.8 35.8 0 0 1 3.747.53 83.913 83.913 0 0 1 -14.647 1 83.913 83.913 0 0 1 -14.647-1 35.8 35.8 0 0 1 3.747-.53l-.2-1.991c-5.771.578-6.9 1.362-6.9 2.521 0 1.088.959 1.83 5.862 2.407.958.113 2.016.209 3.138.29v2.303z" fill="#ffffff" fill-opacity="1" data-original-color="#000000ff" stroke="none" stroke-opacity="1"/></g></svg>